<?xml version="1.0" encoding="UTF-8"?>
<svg width="870px" height="240px" viewBox="0 0 870 240" version="1.1" xmlns="http://www.w3.org/2000/svg" xmlns:xlink="http://www.w3.org/1999/xlink">
    <!-- Generator: Sketch 47.1 (45422) - http://www.bohemiancoding.com/sketch -->
    <title>zensports_primary_trans</title>
    <desc>Created with Sketch.</desc>
    <defs></defs>
    <g id="Identity" stroke="none" stroke-width="1" fill="none" fill-rule="evenodd">
        <g id="zensports_primary_trans" fill="#FFFFFF">
            <g id="Group">
                <path d="M815.313223,143.451 C815.313223,155.364 803.525223,161.508 791.362223,161.508 C779.826223,161.508 768.038223,154.486 767.788223,141.821 L782.083223,141.821 C782.459223,145.959 787.224223,149.47 792.867223,149.22 C797.130223,149.094 800.516223,146.711 800.516223,143.326 C800.641223,140.316 798.384223,138.811 794.121223,137.808 L786.095223,135.802 C770.922223,131.664 769.542223,124.767 769.542223,117.87 C769.542223,108.465 779.449223,100.44 791.111223,100.44 C802.146223,100.44 813.432223,105.456 813.933223,118.873 L799.387223,118.873 C799.136223,114.484 794.873223,112.854 791.487223,112.854 C787.725223,112.854 784.088223,114.234 784.088223,118.622 C784.088223,121.005 786.847223,122.635 790.233223,123.513 L800.014223,125.895 C813.557223,129.407 815.313223,138.811 815.313223,143.451 L815.313223,143.451 Z M753.039223,101.694 L765.453223,101.694 L765.453223,113.983 L753.039223,113.983 L753.039223,160.254 L737.866223,160.254 L737.866223,113.983 L727.207223,113.983 L727.207223,101.694 L737.866223,101.694 L737.866223,79.373 L753.039223,79.373 L753.039223,101.694 Z M715.518223,100.44 C719.657223,100.44 722.792223,101.318 725.174223,102.572 L722.541223,116.366 C718.904223,114.735 715.142223,114.735 713.637223,114.735 C703.229223,114.735 698.966223,124.014 698.966223,139.564 L698.966223,160.254 L683.667223,160.254 L683.667223,101.694 L698.966223,101.694 L698.966223,115.488 C701.975223,104.829 708.873223,100.44 715.518223,100.44 L715.518223,100.44 Z M645.205223,146.461 C636.803223,146.461 629.906223,140.316 629.906223,130.786 C629.906223,121.507 636.803223,115.488 645.205223,115.488 C653.606223,115.488 660.503223,121.507 660.503223,130.786 C660.503223,140.316 653.606223,146.461 645.205223,146.461 L645.205223,146.461 Z M645.205223,100.44 C628.527223,100.44 614.733223,112.353 614.733223,130.786 C614.733223,149.22 628.527223,161.383 645.205223,161.383 C661.757223,161.383 675.676223,149.22 675.676223,130.786 C675.676223,112.353 661.757223,100.44 645.205223,100.44 L645.205223,100.44 Z M578.867223,146.962 C570.841223,146.962 563.317223,141.319 563.317223,131.162 C563.317223,121.381 570.465223,115.111 578.867223,115.111 C587.268223,115.111 594.291223,121.507 594.291223,131.162 C594.291223,140.692 587.268223,146.962 578.867223,146.962 L578.867223,146.962 Z M581.375223,100.44 C573.725223,100.44 566.202223,103.826 563.067223,109.594 L563.067223,101.694 L547.768223,101.694 L547.768223,188.719 L563.067223,188.719 L563.067223,152.48 C566.202223,158.373 573.725223,161.508 581.375223,161.508 C596.672223,161.508 609.965223,149.596 609.965223,130.911 C609.965223,112.478 596.672223,100.44 581.375223,100.44 L581.375223,100.44 Z M538.573223,137.181 C537.821223,152.73 524.027223,161.634 508.227223,161.634 C489.793223,161.634 477.254223,149.847 477.254223,135.05 L493.305223,135.05 C493.555223,141.319 498.948223,147.213 508.227223,147.213 C516.879223,147.213 522.146223,142.699 522.522223,136.805 C522.899223,131.037 519.011223,127.275 510.610223,125.018 L499.951223,122.259 C481.141223,116.742 478.132223,105.832 478.132223,98.183 C478.132223,83.01 491.298223,72.853 507.224223,72.853 C523.526223,72.853 535.940223,82.759 535.940223,98.935 L519.889223,98.935 C519.889223,92.164 514.999223,87.65 506.973223,87.65 C499.826223,87.65 494.057223,91.662 494.057223,97.806 C494.057223,100.565 495.060223,105.205 504.339223,107.713 L514.999223,110.848 C534.310223,116.115 539.326223,127.024 538.573223,137.181 L538.573223,137.181 Z M468.587223,125.645 L468.587223,160.254 L453.289223,160.254 L453.289223,128.404 C453.289223,119.876 448.775223,115.362 442.128223,115.362 C435.232223,115.362 429.338223,118.873 429.338223,129.031 L429.338223,160.254 L414.040223,160.254 L414.040223,101.694 L429.338223,101.694 L429.338223,110.347 C432.598223,104.076 439.997223,100.44 446.768223,100.44 C460.436223,100.44 468.587223,109.093 468.587223,125.645 L468.587223,125.645 Z M361.144223,125.645 C362.273223,117.745 368.542223,113.23 376.568223,113.23 C384.091223,113.23 390.111223,117.619 391.239223,125.645 L361.144223,125.645 Z M376.443223,100.44 C359.765223,100.44 346.096223,112.353 346.096223,130.786 C346.096223,149.22 359.765223,161.508 376.443223,161.508 C387.227223,161.508 398.512223,157.37 403.779223,147.338 C400.017223,145.332 395.753223,143.075 392.117223,141.069 C389.358223,146.084 383.339223,148.592 377.446223,148.592 C368.793223,148.592 362.273223,143.827 361.269223,136.053 L405.911223,136.053 C406.036223,134.673 406.162223,132.291 406.162223,130.786 C406.162223,112.353 393.121223,100.44 376.443223,100.44 L376.443223,100.44 Z M281.540223,73.856 L342.232223,73.856 L342.232223,86.521 L300.224223,145.834 L342.232223,145.834 L342.232223,160.254 L279.910223,160.254 L279.910223,147.715 L321.542223,88.277 L281.540223,88.277 L281.540223,73.856 Z M225.719223,85.524 C221.014223,97.712 208.078223,104.653 190.514223,104.742 C193.768223,94.395 196.178223,82.929 197.580223,70.664 C207.811223,63.142 216.793223,61.197 222.276223,65.348 C227.313223,69.16 228.762223,77.645 225.719223,85.524 L225.719223,85.524 Z M139.261223,148.282 C118.082223,148.282 99.5362233,118.05 93.0032233,77.366 C110.140223,85.466 129.096223,86.772 141.112223,86.572 L117.833223,118.486 C117.472223,118.98 117.916223,119.659 118.514223,119.526 L130.985223,116.755 C131.160223,116.715 147.478223,113.193 174.905223,114.807 C165.925223,135.258 153.161223,148.282 139.261223,148.282 L139.261223,148.282 Z M50.6392233,78.819 C48.9832233,72.921 50.3762233,67.55 54.2722233,64.802 C60.0252233,60.75 69.9042233,62.787 80.8912233,70.199 C82.2292233,82.136 84.5212233,93.32 87.6162233,103.461 C64.6252233,99.825 53.4262233,88.747 50.6392233,78.819 L50.6392233,78.819 Z M187.948223,50.973 C187.433223,70.49 184.190223,88.759 179.034223,104.082 C163.086223,102.929 150.460223,103.418 141.831223,104.201 L163.579223,74.396 C163.924223,73.922 163.531223,73.266 162.951223,73.347 L151.695223,74.907 C151.331223,74.96 116.341223,79.574 91.3342233,63.983 C90.9492233,59.722 90.6912233,55.38 90.5742233,50.973 L187.948223,50.973 Z M164.501223,184.224 L114.020223,184.224 C114.581223,182.087 116.529223,180.506 118.840223,180.506 L159.681223,180.506 C161.992223,180.506 163.940223,182.087 164.501223,184.224 L164.501223,184.224 Z M228.898223,56.598 C224.922223,53.589 214.729223,48.4 198.704223,56.969 C198.894223,53.198 198.993223,49.368 198.993223,45.487 L198.993223,43.991 L198.993223,40 L195.003223,40 L83.5202233,40 L79.5302233,40 L79.5302233,43.991 L79.5302233,45.487 C79.5302233,49.309 79.6262233,53.08 79.8112233,56.795 C62.6832233,47.996 52.0682233,52.932 47.9502233,55.834 C40.2632233,61.254 37.1712233,71.44 40.0762233,81.785 C44.0472233,95.936 59.6972233,111.77 91.6782233,115.044 C101.480223,139.536 116.457223,155.918 133.775223,158.793 L133.775223,169.533 L118.840223,169.533 C110.028223,169.533 102.885223,176.676 102.885223,185.488 L102.885223,195.197 L175.635223,195.197 L175.635223,185.488 C175.635223,176.676 168.492223,169.533 159.681223,169.533 L144.748223,169.533 L144.748223,158.793 C161.925223,155.941 176.800223,139.803 186.606223,115.64 C222.277223,117.296 233.366223,96.188 235.957223,89.476 C240.798223,76.93 237.897223,63.41 228.898223,56.598 L228.898223,56.598 Z M829.888,154.553 C829.308,155.133 828.628,155.513 828.028,155.513 C826.768,155.513 825.788,154.493 825.788,153.232 C825.788,151.992 826.768,150.972 828.028,150.972 C828.628,150.972 829.308,151.352 829.848,151.892 L830.769,150.952 C829.949,150.091 828.968,149.631 828.028,149.631 C826.007,149.631 824.427,151.232 824.427,153.232 C824.427,155.232 826.007,156.853 828.028,156.853 C829.008,156.853 830.008,156.373 830.789,155.553 L829.888,154.553 Z M827.968,158.954 C831.189,158.954 833.729,156.353 833.729,153.132 C833.729,149.912 831.189,147.291 827.968,147.291 C824.748,147.291 822.207,149.912 822.207,153.132 C822.207,156.353 824.748,158.954 827.968,158.954 L827.968,158.954 Z M827.968,146.051 C831.869,146.051 834.969,149.231 834.969,153.132 C834.969,157.033 831.869,160.194 827.968,160.194 C824.067,160.194 820.987,157.033 820.987,153.132 C820.987,149.231 824.067,146.051 827.968,146.051 L827.968,146.051 Z" id="Primary-Logo-Copy"></path>
            </g>
        </g>
    </g>
</svg>