<svg width="1427" height="338" viewBox="0 0 1427 338" fill="none" xmlns="http://www.w3.org/2000/svg">
<path d="M115.01 234.55C115.01 234.55 114.39 224.63 115.63 181.85C115.63 181.85 88.66 181.85 64.48 180.3C72.85 162.63 89.28 128.22 115.63 77.69C115.63 77.69 115.94 48.86 114.7 16.31C114.7 16.31 80.29 17.55 3.72 19.1C3.72 19.1 4.34 31.81 4.03 75.52C4.03 75.52 25.73 74.59 56.42 73.66C48.05 90.71 31.31 123.88 3.41 175.65C3.41 175.65 4.03 192.08 3.1 232.07C3.1 232.07 40.61 232.07 115.01 234.55ZM127.655 228.97C180.045 229.59 224.065 230.21 224.065 230.21C224.065 195.8 224.685 178.44 224.685 178.44C198.955 179.06 182.835 179.06 182.835 179.06C181.905 165.42 181.905 155.19 181.905 155.19C202.675 154.88 217.865 155.5 217.865 155.5C217.245 125.12 217.555 104.66 217.555 104.66C193.065 105.28 182.835 104.97 180.665 104.97C180.355 86.68 180.665 75.52 180.665 75.52C200.505 74.28 225.305 73.66 225.305 73.66C224.375 41.42 224.685 18.79 224.685 18.79C151.215 20.65 125.175 20.65 125.175 20.65C127.035 145.58 127.655 228.97 127.655 228.97ZM235.392 227.42C267.322 227.42 287.782 228.35 287.782 228.35C284.992 184.33 283.752 153.95 283.132 132.56C306.382 194.87 321.882 238.89 321.882 238.89C356.602 236.1 372.102 233.62 372.102 233.62C368.072 95.36 366.522 12.59 366.522 12.59C335.212 12.9 315.992 11.66 315.992 11.66C320.332 65.6 322.812 104.04 324.052 129.15C300.182 63.12 287.162 23.75 287.162 23.75C256.782 24.68 234.462 26.23 234.462 26.23C236.632 151.47 235.392 227.42 235.392 227.42ZM447.238 237.03C486.918 237.03 513.888 219.05 513.888 174.72C513.888 140.31 503.038 123.26 460.878 104.35C445.378 97.53 439.488 86.68 439.488 74.9C439.488 63.43 441.968 56.92 447.548 56.92C453.438 56.92 458.088 65.6 454.678 91.95C482.268 92.57 510.788 95.05 510.788 95.05C516.058 41.73 496.218 12.9 448.478 12.9C409.728 12.9 380.898 29.02 380.898 72.42C380.898 105.9 392.058 126.36 428.638 144.65C450.028 155.5 455.298 163.87 455.298 175.34C455.298 188.67 452.818 192.7 446.928 192.7C438.868 192.7 436.078 181.23 437.938 156.43C403.218 156.43 380.278 155.81 380.278 155.81C376.868 207.27 393.918 237.03 447.238 237.03ZM521.757 231.14C554.927 230.21 579.107 230.83 579.107 230.83C578.487 214.71 578.177 200.76 577.867 186.81C625.297 186.19 652.577 154.26 652.577 102.8C652.577 43.9 624.677 16.31 557.097 16.31C546.867 16.31 535.397 17.24 522.997 18.48C523.307 148.68 521.757 231.14 521.757 231.14ZM576.937 66.53C589.027 65.6 595.537 76.76 595.537 104.66C595.537 133.49 589.647 141.55 576.937 143.1C576.317 92.26 576.937 66.53 576.937 66.53ZM729.193 238.89C776.933 238.89 798.943 209.75 799.563 128.53C799.563 55.99 786.233 12.9 728.883 12.9C673.083 12.9 658.823 60.33 658.823 128.84C659.133 200.45 677.733 238.89 729.193 238.89ZM729.813 196.42C722.683 196.42 719.893 188.67 719.893 128.22C719.893 68.39 720.823 57.23 729.193 57.23C736.013 57.23 738.493 65.6 738.493 126.05C738.493 189.29 736.013 196.42 729.813 196.42ZM889.349 239.82C926.549 237.65 947.629 236.1 947.629 236.1C928.719 184.02 919.109 153.64 916.629 145.58C932.749 134.11 942.669 116.13 942.669 89.16C942.669 38.01 916.629 11.04 859.589 11.04C845.019 11.04 828.589 12.9 809.989 16.31C810.299 146.82 808.749 228.97 808.749 228.97C841.919 228.35 866.099 228.66 866.099 228.66L864.859 162.01C867.029 162.01 869.199 161.7 869.199 161.7C882.219 209.44 889.349 239.82 889.349 239.82ZM864.859 124.5C864.859 124.5 864.239 91.33 863.929 58.78C877.879 57.54 884.079 71.49 884.079 93.19C884.079 115.2 876.949 124.19 864.859 124.5ZM946.391 71.49L979.561 71.18C980.491 171.31 979.871 234.86 979.871 234.86C1017.38 233.93 1035.67 234.55 1035.67 234.55C1034.74 155.5 1034.43 106.21 1034.43 71.18C1054.89 71.18 1067.29 71.49 1067.29 71.49C1066.98 36.77 1068.22 16.62 1068.22 16.62C987.931 18.17 946.081 17.86 946.081 17.86C947.011 57.85 946.391 71.49 946.391 71.49ZM1138.68 235.48C1182.39 235.48 1205.33 215.02 1205.33 171.62C1205.33 142.79 1196.34 123.57 1158.52 109C1136.82 100.63 1130.93 91.64 1130.93 79.55C1130.93 68.08 1133.41 60.02 1138.99 60.02C1144.88 60.02 1149.53 69.01 1146.12 95.36C1177.74 94.74 1202.23 95.05 1202.23 95.05C1205.95 45.14 1187.97 16 1139.92 16C1094.04 16 1072.34 40.49 1072.34 78.93C1072.34 112.1 1085.05 131.01 1117.6 144.03C1142.4 153.95 1146.74 161.39 1146.74 172.24C1146.74 185.57 1144.26 191.15 1138.37 191.15C1130.31 191.15 1127.52 181.23 1129.38 156.43C1093.73 157.67 1071.72 157.36 1071.72 157.36C1068 213.16 1091.25 235.48 1138.68 235.48ZM1215.99 233.31C1253.81 233 1272.41 233.31 1272.41 233.31C1271.48 121.4 1270.86 17.55 1270.86 17.55C1233.97 17.86 1214.75 17.86 1214.75 17.86C1216.3 138.45 1215.99 233.31 1215.99 233.31ZM1280.26 228.35C1318.7 228.04 1335.75 228.97 1335.75 228.97L1337.61 202.93C1348.46 202.93 1358.07 202.93 1363.65 203.24C1365.51 227.73 1366.13 237.96 1366.13 237.96C1402.4 237.03 1425.34 237.65 1425.34 237.65C1404.88 119.54 1390.62 15.38 1390.62 15.38C1390.62 15.38 1356.21 14.76 1311.26 16.62C1293.9 146.2 1280.26 228.35 1280.26 228.35ZM1350.32 62.5C1350.32 62.5 1354.97 105.28 1359.93 157.67C1359.93 157.67 1350.94 157.98 1341.02 157.67C1344.74 113.03 1348.46 79.24 1350.32 62.5Z" fill="white"/>
<path d="M782.43 302.68L788.94 284.34H789.08L795.38 302.68H782.43ZM783.48 272.02L764.58 322H775.64L779.56 310.87H798.25L802.03 322H813.44L794.75 272.02H783.48ZM837.232 272.02V322H848.222V305.9L854.522 299.53L869.572 322H883.362L861.942 291.76L881.472 272.02H867.752L848.222 292.74V272.02H837.232ZM887.75 272.02V322H925.69V312.76H898.74V300.51H922.96V291.97H898.74V281.26H925.13V272.02H887.75ZM946.091 302.54V322H957.081V302.82L975.631 272.02H963.381L951.761 291.76L940.071 272.02H927.751L946.091 302.54ZM987.32 305.41H976.68C976.633 308.49 977.193 311.15 978.36 313.39C979.527 315.63 981.09 317.473 983.05 318.92C985.057 320.367 987.343 321.417 989.91 322.07C992.523 322.77 995.207 323.12 997.96 323.12C1001.37 323.12 1004.35 322.723 1006.92 321.93C1009.53 321.137 1011.7 320.04 1013.43 318.64C1015.2 317.193 1016.53 315.49 1017.42 313.53C1018.31 311.57 1018.75 309.447 1018.75 307.16C1018.75 304.36 1018.14 302.073 1016.93 300.3C1015.76 298.48 1014.36 297.033 1012.73 295.96C1011.1 294.887 1009.44 294.117 1007.76 293.65C1006.13 293.137 1004.84 292.787 1003.91 292.6C1000.78 291.807 998.24 291.153 996.28 290.64C994.367 290.127 992.85 289.613 991.73 289.1C990.657 288.587 989.933 288.027 989.56 287.42C989.187 286.813 989 286.02 989 285.04C989 283.967 989.233 283.08 989.7 282.38C990.167 281.68 990.75 281.097 991.45 280.63C992.197 280.163 993.013 279.837 993.9 279.65C994.787 279.463 995.673 279.37 996.56 279.37C997.913 279.37 999.15 279.487 1000.27 279.72C1001.44 279.953 1002.46 280.35 1003.35 280.91C1004.24 281.47 1004.94 282.24 1005.45 283.22C1006.01 284.2 1006.34 285.437 1006.43 286.93H1017.07C1017.07 284.037 1016.51 281.587 1015.39 279.58C1014.32 277.527 1012.85 275.847 1010.98 274.54C1009.11 273.233 1006.97 272.3 1004.54 271.74C1002.16 271.133 999.663 270.83 997.05 270.83C994.81 270.83 992.57 271.133 990.33 271.74C988.09 272.347 986.083 273.28 984.31 274.54C982.537 275.8 981.09 277.387 979.97 279.3C978.897 281.167 978.36 283.383 978.36 285.95C978.36 288.237 978.78 290.197 979.62 291.83C980.507 293.417 981.65 294.747 983.05 295.82C984.45 296.893 986.037 297.78 987.81 298.48C989.583 299.133 991.403 299.693 993.27 300.16C995.09 300.673 996.887 301.14 998.66 301.56C1000.43 301.98 1002.02 302.47 1003.42 303.03C1004.82 303.59 1005.94 304.29 1006.78 305.13C1007.67 305.97 1008.11 307.067 1008.11 308.42C1008.11 309.68 1007.78 310.73 1007.13 311.57C1006.48 312.363 1005.66 312.993 1004.68 313.46C1003.7 313.927 1002.65 314.253 1001.53 314.44C1000.41 314.58 999.36 314.65 998.38 314.65C996.933 314.65 995.533 314.487 994.18 314.16C992.827 313.787 991.637 313.25 990.61 312.55C989.63 311.803 988.837 310.847 988.23 309.68C987.623 308.513 987.32 307.09 987.32 305.41ZM1036.35 281.26V322H1047.34V281.26H1062.32V272.02H1021.37V281.26H1036.35ZM1074.26 302.68L1080.77 284.34H1080.91L1087.21 302.68H1074.26ZM1075.31 272.02L1056.41 322H1067.47L1071.39 310.87H1090.08L1093.86 322H1105.27L1086.58 272.02H1075.31ZM1120.57 294.63V280.56H1132.61C1135.13 280.56 1137.02 281.12 1138.28 282.24C1139.54 283.313 1140.17 285.063 1140.17 287.49C1140.17 290.01 1139.54 291.83 1138.28 292.95C1137.02 294.07 1135.13 294.63 1132.61 294.63H1120.57ZM1109.58 272.02V322H1120.57V302.47H1131.56C1134.31 302.47 1136.29 303.077 1137.51 304.29C1138.72 305.503 1139.51 307.417 1139.89 310.03C1140.17 312.037 1140.38 314.137 1140.52 316.33C1140.66 318.523 1141.03 320.413 1141.64 322H1152.63C1152.11 321.3 1151.72 320.46 1151.44 319.48C1151.2 318.453 1151.02 317.38 1150.88 316.26C1150.78 315.14 1150.71 314.043 1150.67 312.97C1150.62 311.897 1150.57 310.963 1150.53 310.17C1150.43 308.91 1150.25 307.65 1149.97 306.39C1149.73 305.13 1149.34 303.987 1148.78 302.96C1148.22 301.887 1147.49 300.977 1146.61 300.23C1145.72 299.437 1144.6 298.853 1143.25 298.48V298.34C1146.05 297.22 1148.05 295.587 1149.27 293.44C1150.53 291.293 1151.16 288.75 1151.16 285.81C1151.16 283.897 1150.81 282.123 1150.11 280.49C1149.45 278.81 1148.47 277.34 1147.17 276.08C1145.91 274.82 1144.37 273.84 1142.55 273.14C1140.77 272.393 1138.77 272.02 1136.53 272.02H1109.58ZM1190.57 292.25V280.56H1200.86C1201.84 280.56 1202.77 280.653 1203.66 280.84C1204.59 280.98 1205.41 281.26 1206.11 281.68C1206.81 282.1 1207.37 282.683 1207.79 283.43C1208.21 284.177 1208.42 285.133 1208.42 286.3C1208.42 288.4 1207.79 289.917 1206.53 290.85C1205.27 291.783 1203.66 292.25 1201.7 292.25H1190.57ZM1179.58 272.02V322H1203.8C1206.04 322 1208.21 321.72 1210.31 321.16C1212.45 320.6 1214.34 319.737 1215.98 318.57C1217.66 317.403 1218.99 315.91 1219.97 314.09C1220.95 312.223 1221.44 310.03 1221.44 307.51C1221.44 304.383 1220.67 301.723 1219.13 299.53C1217.63 297.29 1215.35 295.727 1212.27 294.84C1214.51 293.767 1216.19 292.39 1217.31 290.71C1218.47 289.03 1219.06 286.93 1219.06 284.41C1219.06 282.077 1218.66 280.117 1217.87 278.53C1217.12 276.943 1216.05 275.683 1214.65 274.75C1213.25 273.77 1211.57 273.07 1209.61 272.65C1207.65 272.23 1205.48 272.02 1203.1 272.02H1179.58ZM1190.57 313.46V299.74H1202.54C1204.92 299.74 1206.83 300.3 1208.28 301.42C1209.72 302.493 1210.45 304.313 1210.45 306.88C1210.45 308.187 1210.21 309.26 1209.75 310.1C1209.33 310.94 1208.74 311.617 1208 312.13C1207.25 312.597 1206.39 312.947 1205.41 313.18C1204.43 313.367 1203.4 313.46 1202.33 313.46H1190.57ZM1239.85 294.63V280.56H1251.89C1254.41 280.56 1256.3 281.12 1257.56 282.24C1258.82 283.313 1259.45 285.063 1259.45 287.49C1259.45 290.01 1258.82 291.83 1257.56 292.95C1256.3 294.07 1254.41 294.63 1251.89 294.63H1239.85ZM1228.86 272.02V322H1239.85V302.47H1250.84C1253.6 302.47 1255.58 303.077 1256.79 304.29C1258.01 305.503 1258.8 307.417 1259.17 310.03C1259.45 312.037 1259.66 314.137 1259.8 316.33C1259.94 318.523 1260.32 320.413 1260.92 322H1271.91C1271.4 321.3 1271 320.46 1270.72 319.48C1270.49 318.453 1270.3 317.38 1270.16 316.26C1270.07 315.14 1270 314.043 1269.95 312.97C1269.91 311.897 1269.86 310.963 1269.81 310.17C1269.72 308.91 1269.53 307.65 1269.25 306.39C1269.02 305.13 1268.62 303.987 1268.06 302.96C1267.5 301.887 1266.78 300.977 1265.89 300.23C1265.01 299.437 1263.89 298.853 1262.53 298.48V298.34C1265.33 297.22 1267.34 295.587 1268.55 293.44C1269.81 291.293 1270.44 288.75 1270.44 285.81C1270.44 283.897 1270.09 282.123 1269.39 280.49C1268.74 278.81 1267.76 277.34 1266.45 276.08C1265.19 274.82 1263.65 273.84 1261.83 273.14C1260.06 272.393 1258.05 272.02 1255.81 272.02H1228.86ZM1291.98 302.68L1298.49 284.34H1298.63L1304.93 302.68H1291.98ZM1293.03 272.02L1274.13 322H1285.19L1289.11 310.87H1307.8L1311.58 322H1322.99L1304.3 272.02H1293.03ZM1327.3 272.02V322H1337.59V288.54H1337.73L1358.52 322H1369.51V272.02H1359.22V305.55H1359.08L1338.22 272.02H1327.3ZM1390.18 312.76V281.26H1398.02C1400.72 281.26 1402.99 281.657 1404.81 282.45C1406.67 283.197 1408.17 284.293 1409.29 285.74C1410.41 287.187 1411.2 288.937 1411.67 290.99C1412.18 292.997 1412.44 295.26 1412.44 297.78C1412.44 300.533 1412.09 302.867 1411.39 304.78C1410.69 306.693 1409.75 308.257 1408.59 309.47C1407.42 310.637 1406.09 311.477 1404.6 311.99C1403.1 312.503 1401.56 312.76 1399.98 312.76H1390.18ZM1379.19 272.02V322H1400.75C1404.57 322 1407.89 321.37 1410.69 320.11C1413.53 318.803 1415.89 317.03 1417.76 314.79C1419.67 312.55 1421.09 309.89 1422.03 306.81C1422.96 303.73 1423.43 300.37 1423.43 296.73C1423.43 292.577 1422.84 288.96 1421.68 285.88C1420.56 282.8 1418.97 280.233 1416.92 278.18C1414.91 276.127 1412.51 274.587 1409.71 273.56C1406.95 272.533 1403.97 272.02 1400.75 272.02H1379.19Z" fill="white"/>
</svg>
